<?xml version="1.0" encoding="utf-8"?>
<!-- Generator: Adobe Illustrator 22.1.0, SVG Export Plug-In . SVG Version: 6.00 Build 0)  -->
<svg version="1.1" id="Layer_1" xmlns:sketch="http://www.bohemiancoding.com/sketch/ns"
	 xmlns="http://www.w3.org/2000/svg" xmlns:xlink="http://www.w3.org/1999/xlink" x="0px" y="0px" viewBox="0 0 70 87.5"
	 style="enable-background:new 0 0 70 87.5;" xml:space="preserve">
<style type="text/css">
	.st0{fill:#FFFFFF;}
</style>
<title>boat</title>
<description>Created with Sketch (http://www.bohemiancoding.com/sketch)</description>
<g sketch:type="MSPage">
	<path sketch:type="MSShapeGroup" class="st0" d="M11.1,40.8c-0.1,0-0.2,0.1-0.2,0.2c0,0.4,0.4,1.4,3.6,2.8c1.3,0.5,3.2-1.1,5.3-0.6
		c1.8,0.4,4.7,1.8,7.3,1.8s5.5-1.8,8.2-1.8c4.4,0,6.2,2.5,9,2.2c1.9-0.3,3.9-2,5.1-2.3s2.6,0.5,3.6,0c3.4-1.6,4-5.4,4.1-6.6
		c0-0.2-0.1-0.3-0.3-0.3L11.1,40.8z M34.3,26.5c-0.2-3.5-2.3-11.2-3-13.7c-0.1-0.3,0.2-0.4,0.4-0.3c1.9,1.7,7.6,6.8,10.9,11
		c3.5,4.5,6.5,9.7,7.3,11.1c0.1,0.2,0,0.4-0.2,0.4l-15.1,1.1c-0.2,0-0.3-0.1-0.3-0.3C34.4,34.7,34.4,30.2,34.3,26.5z M31.7,22.2
		c0-0.3-0.4-0.3-0.5-0.1c-0.6,2.5-1.8,6.9-3.5,9.6c-1.7,2.7-4,4.6-5.3,5.5c-0.2,0.2-0.1,0.5,0.2,0.5l9.7-1.2c0.1,0,0.2-0.1,0.2-0.3
		L31.7,22.2z M51.1,45.2c-3,0-5.3,2.2-8,1.9c-2.2-0.2-5.7-1.9-7.9-1.9c-2.6-0.1-6,1.6-8.2,1.4c-3.5-0.3-6.7-1.4-7.9-1.4
		c-5.1,0-8.1,4-8.1,4s5.7-2.1,8.1-2.1c3.1,0,3.9,1.8,7.9,2.1c2.6,0.2,5.4-1.9,8.2-1.8c3.4,0.1,4.8,1.8,7.9,2.2
		c2.7,0.4,5.3-2.2,8-2.2c1.9,0,3.3,0.6,4.3,1.2c0.3,0.2,0.5-0.2,0.3-0.4C54.7,46.8,53,45.2,51.1,45.2z"/>
</g>
</svg>
